<?xml version="1.0" encoding="utf-8"?>
<!-- Generator: Adobe Illustrator 19.0.0, SVG Export Plug-In . SVG Version: 6.00 Build 0)  -->
<svg version="1.1" id="layer" xmlns="http://www.w3.org/2000/svg" xmlns:xlink="http://www.w3.org/1999/xlink" x="0px" y="0px"
	 viewBox="-153 -46 652 652" style="enable-background:new -153 -46 652 652;" xml:space="preserve">
<style type="text/css">
	.st0{fill:#00A9DF;}
</style>
<g>
	<path class="st0" d="M-92.1,292.7c-9.7-2.6-17-3.7-13.6-9.2c3.4-5.8,17.5-7.1,31.4,0.3c1,0.5,1.8,1.1,1.8,1.1
		c3.1-5.3,7.8-13.7,7.8-13.7c-6.3-5-16.2-7.4-25.9-7.4c-15.2,0-30.6,7.7-32.9,20.9c-2.1,12.4,6.8,17.9,23.8,22.4
		c10.5,2.9,10.7,5,11,6.6v0.8c-0.5,2.6-4.7,7.4-13.6,7.1c-8.1-0.3-15.9-4.7-21.4-9.2l-8.1,14.2c7.6,6.3,15.2,11.3,31.9,11.3
		c16.2,0,29.5-11.3,29.5-23.5C-70.7,304.4-74.1,297.5-92.1,292.7"/>
	<path class="st0" d="M211,262.9l-1.3,7.1c-1-1.1-2.4-1.8-3.7-2.6c-7.8-4.5-17.2-5-26.4-1.6c-8.6,3.2-15.9,9.8-20.9,18.5
		c-5,8.7-6.8,18.5-5.2,27.4c1.6,9.8,6.8,17.7,14.6,22.2c7.8,4.5,17.2,5,26.4,1.6c8.6-3.2,15.9-9.8,20.9-18.5
		c2.9-5.3,4.7-10.8,5.5-16.4c0,0,8.1-47,10.2-57.8C217.8,251.8,211,262.9,211,262.9 M201.3,308.8c-3.1,5.3-7.6,9.2-12.5,11.3
		c-4.4,1.8-8.9,1.6-12.5-0.5c-3.7-2.1-6-5.8-6.8-10.6c-0.8-5.5,0.3-11.3,3.4-16.6c3.1-5.3,7.6-9.2,12.5-11.3
		c4.4-1.8,8.9-1.6,12.5,0.5c3.7,2.1,6,5.8,6.8,10.6C205.5,297.5,204.4,303.6,201.3,308.8"/>
	<path class="st0" d="M409.3,267.1c-0.3-0.3-0.8-0.5-1-0.5c-19.9-9.5-29.5,5-30,5.8l1-6.3H363l-12,69.1h16.5l5.7-33.8
		c0,0,1.6-13.5,14.4-19.5c7.6-3.4,12.5-1.1,13.6-0.3C405.1,274.8,406.7,271.9,409.3,267.1"/>
	<path class="st0" d="M248.8,226.5c0.5-3.2,2.4-13.7,2.4-13.7s-18.6,3.7-34.2,15.3c-0.5,2.9-3.1,18.2-3.4,20.1
		C218.8,242.6,230,232.3,248.8,226.5"/>
	<path class="st0" d="M-13,267.4c-7.8-4.5-17.2-5-26.4-1.6c-8.6,3.2-15.9,9.8-20.9,18.5c-5,8.7-6.8,18.5-5.2,27.4
		c1.6,9.8,6.8,17.7,14.6,22.2c7.8,4.5,17.2,5,26.4,1.6c8.6-3.2,15.9-9.8,20.9-18.5c5-8.7,6.8-18.5,5.2-27.4
		C0.1,279.8-5.1,271.9-13,267.4 M-17.7,308.8c-3.1,5.3-7.6,9.2-12.5,11.3c-4.4,1.9-8.9,1.6-12.5-0.5c-3.7-2.1-6-5.8-6.8-10.6
		c-0.8-5.5,0.3-11.3,3.4-16.6c3.1-5.3,7.6-9.2,12.5-11.4c4.4-1.8,8.9-1.6,12.5,0.5c3.7,2.1,6,5.8,6.8,10.6
		C-13.2,297.5-14.5,303.6-17.7,308.8"/>
	<path class="st0" d="M351,289.6c-1.6-9.8-6.8-17.7-14.6-22.2c-7.8-4.5-17.2-5-26.4-1.6c-8.6,3.2-15.9,9.8-20.9,18.5
		c-5,8.7-6.8,18.5-5.2,27.4c1.6,9.8,6.8,17.7,14.6,22.2c7.8,4.5,17.2,5,26.4,1.6c8.6-3.2,15.9-9.8,20.9-18.5
		C350.8,308.3,352.6,298.5,351,289.6 M331.7,308.8c-3.1,5.3-7.6,9.2-12.5,11.3c-4.4,1.9-8.9,1.6-12.5-0.5c-3.7-2.1-6-5.8-6.8-10.6
		c-0.8-5.5,0.3-11.3,3.4-16.6c3.1-5.3,7.6-9.2,12.5-11.4c4.4-1.8,8.9-1.6,12.5,0.5c3.7,2.1,6,5.8,6.8,10.6
		C335.9,297.5,334.8,303.6,331.7,308.8"/>
	<path class="st0" d="M74.8,300.7l6-34.6H64.4l-5.7,32.2c-0.3,3.7-1.6,7.1-3.4,10.5c-3.1,5.3-7.6,9.2-12.5,11.4
		c-4.4,1.8-8.9,1.6-12.5-0.5c-3.7-2.1-6-5.8-6.8-10.5c-0.5-2.6-0.3-5.5,0.3-8.2v-0.5l6-34H13.2l-5.2,30.3c-0.3,1.3-0.5,2.6-0.8,4.2
		v0.3c-0.5,3.7-0.3,7.4,0.3,10.8c1.6,9.8,6.8,17.7,14.6,22.2c7.8,4.5,17.2,5,26.4,1.6c8.6-3.2,15.9-9.8,20.9-18.5
		C72.2,311.7,74.3,306.2,74.8,300.7"/>
	<path class="st0" d="M147.7,289.3c-1.6-9.8-6.8-17.7-14.6-22.2c-7.8-4.5-17.2-5-26.4-1.6c-8.6,3.2-15.9,9.8-20.9,18.5
		c-2.9,5.3-4.7,10.8-5.5,16.4l-6,34.8h16.5l5.7-32.5c0.3-3.7,1.6-7.1,3.4-10.6c3.1-5.3,7.6-9.2,12.5-11.3c4.4-1.9,8.9-1.6,12.5,0.5
		c3.7,2.1,6,5.8,6.8,10.6c0.5,2.6,0.3,5.5-0.3,8.2v0.5l-6,34.3H142l5.2-30.6c0.3-1.3,0.5-2.6,0.8-4.2v-0.3
		C148.3,296.7,148.3,293,147.7,289.3"/>
	<path class="st0" d="M262.7,319.7c-0.3,0.3-0.8,0.3-1.1,0.5c-4.4,1.9-8.9,1.6-12.5-0.5c-3.7-2.1-6-5.8-6.8-10.6
		c-0.8-5.5,0.3-11.3,3.4-16.6c2.9-5.3,7.3-9.2,12.3-11.1c0.3,0,0.3,0,0.5-0.3c4.4-1.8,8.9-1.6,12.5,0.5c3.4,1.8,5.8,4,7.3,5.5
		c2.3-4.2,5-9,7.8-13.7c-2.1-2.4-4.4-4.2-7.1-5.8c-7.8-4.5-17.2-5-26.4-1.6c-1,0.3-1.8,0.8-2.9,1.3c-7.3,3.4-13.9,9.5-18,17.2
		c-5,8.7-6.8,18.5-5.2,27.4c1.6,9.8,6.8,17.7,14.6,22.2c3.7,2.1,7.6,3.4,11.5,3.7c4.7,0.5,9.9-0.3,14.9-2.1c5-1.8,9.7-5,13.6-8.7
		l-8.1-14C270.5,314.6,266.9,318.1,262.7,319.7"/>
	<path class="st0" d="M453.2,267.4c-4.4-2.6-9.4-4-14.4-4c-3.9,0-8.1,0.8-12,2.1c-1.1,0.3-1.8,0.8-2.9,1.3
		c-7.3,3.4-13.8,9.5-18,17.2c-5,8.7-6.8,18.5-5.2,27.4c1.6,9.8,6.8,17.7,14.6,22.2c3.7,2.1,7.6,3.4,11.5,3.7h0.5
		c6.8,0.8,13.6-1,19.6-4.7c1.3-0.8,2.4-1.6,3.7-2.4c1.6-1.1,3.4-2.6,4.7-4c2.1-2.1,3.7-4.2,3.7-4.2l-12.3-10.5
		c-2.1,2.6-5.5,6.1-9.7,7.9c-0.3,0.3-0.8,0.3-1,0.5c-0.5,0.3-1,0.3-1.6,0.5c-1.3,0.3-2.4,0.5-3.4,0.5c-2.6,0.3-5.2-0.5-7.3-1.6
		c-0.8-0.5-1.6-1.1-2.1-1.6c-2.4-2.1-3.9-5.5-4.7-9.2c0-0.5,0-1.1-0.3-1.6h49.9C472.5,284.8,460.5,271.6,453.2,267.4 M419,293.8
		c0.3-0.5,0.5-1.1,0.8-1.6c3.1-5.3,7.6-9.2,12.8-11.3c1.6-0.5,3.1-1.1,4.7-1.1c2.6-0.3,5.2,0.3,7.6,1.6c3.1,1.8,6.5,6.1,6.8,12.1
		C444.8,293.8,434.4,293.8,419,293.8"/>
</g>
</svg>
